<svg width="16" height="15" viewBox="0 0 16 15" fill="none" xmlns="http://www.w3.org/2000/svg">
<path d="M9.1867 1.01264L10.4308 3.50093C10.6005 3.84731 11.0529 4.17955 11.4346 4.24317L13.6897 4.61783C15.1317 4.85818 15.4711 5.90439 14.4319 6.93647L12.6788 8.68958C12.3819 8.98648 12.2193 9.55907 12.3112 9.96907L12.8131 12.1393C13.209 13.857 12.2971 14.5215 10.7772 13.6238L8.6636 12.3725C8.28187 12.1463 7.65273 12.1463 7.26393 12.3725L5.1503 13.6238C3.63753 14.5215 2.71856 13.85 3.11442 12.1393L3.61632 9.96907C3.70822 9.55907 3.54563 8.98648 3.24873 8.68958L1.49562 6.93647C0.463544 5.90439 0.795787 4.85818 2.23787 4.61783L4.49288 4.24317C4.86754 4.17955 5.31995 3.84731 5.48961 3.50093L6.73376 1.01264C7.41238 -0.337545 8.51515 -0.337545 9.1867 1.01264Z" fill="#D89C72"/>
</svg>
