<svg width="15" height="15" viewBox="0 0 15 15" fill="none" xmlns="http://www.w3.org/2000/svg">
<path d="M9.15155 1.01264L10.3957 3.50093C10.5653 3.84731 11.0178 4.17955 11.3995 4.24317L13.6545 4.61783C15.0966 4.85818 15.4359 5.90439 14.3968 6.93647L12.6436 8.68958C12.3467 8.98648 12.1842 9.55907 12.276 9.96907L12.7779 12.1393C13.1738 13.857 12.2619 14.5215 10.7421 13.6238L8.62844 12.3725C8.24671 12.1463 7.61757 12.1463 7.22878 12.3725L5.11514 13.6238C3.60237 14.5215 2.6834 13.85 3.07927 12.1393L3.58117 9.96907C3.67306 9.55907 3.51048 8.98648 3.21358 8.68958L1.46046 6.93647C0.428387 5.90439 0.760631 4.85818 2.20271 4.61783L4.45772 4.24317C4.83238 4.17955 5.2848 3.84731 5.45445 3.50093L6.6986 1.01264C7.37722 -0.337545 8.47999 -0.337545 9.15155 1.01264Z" fill="#D89C72"/>
</svg>
